solid ASCII
  facet normal -0.000000e+00 0.000000e+00 1.000000e+00
    outer loop
      vertex   0.000000e+00 1.000000e-01 0.000000e+00
      vertex   0.000000e+00 0.000000e+00 0.000000e+00
      vertex   2.000000e-02 1.000000e-01 0.000000e+00
    endloop
  endfacet
  facet normal 0.000000e+00 0.000000e+00 1.000000e+00
    outer loop
      vertex   2.000000e-02 1.000000e-01 0.000000e+00
      vertex   0.000000e+00 0.000000e+00 0.000000e+00
      vertex   2.000000e-02 0.000000e+00 0.000000e+00
    endloop
  endfacet
  facet normal 0.000000e+00 -1.000000e+00 -1.387779e-16
    outer loop
      vertex   0.000000e+00 1.000000e-01 2.000000e-01
      vertex   0.000000e+00 1.000000e-01 0.000000e+00
      vertex   2.000000e-02 1.000000e-01 2.000000e-01
    endloop
  endfacet
  facet normal 0.000000e+00 -1.000000e+00 -1.387779e-16
    outer loop
      vertex   2.000000e-02 1.000000e-01 2.000000e-01
      vertex   0.000000e+00 1.000000e-01 0.000000e+00
      vertex   2.000000e-02 1.000000e-01 0.000000e+00
    endloop
  endfacet
  facet normal 0.000000e+00 0.000000e+00 -1.000000e+00
    outer loop
      vertex   0.000000e+00 -6.106227e-17 2.000000e-01
      vertex   0.000000e+00 1.000000e-01 2.000000e-01
      vertex   2.000000e-02 -6.106227e-17 2.000000e-01
    endloop
  endfacet
  facet normal 0.000000e+00 0.000000e+00 -1.000000e+00
    outer loop
      vertex   2.000000e-02 -6.106227e-17 2.000000e-01
      vertex   0.000000e+00 1.000000e-01 2.000000e-01
      vertex   2.000000e-02 1.000000e-01 2.000000e-01
    endloop
  endfacet
  facet normal -0.000000e+00 1.000000e+00 3.053113e-16
    outer loop
      vertex   0.000000e+00 0.000000e+00 0.000000e+00
      vertex   0.000000e+00 -6.106227e-17 2.000000e-01
      vertex   2.000000e-02 0.000000e+00 0.000000e+00
    endloop
  endfacet
  facet normal 0.000000e+00 1.000000e+00 3.053113e-16
    outer loop
      vertex   2.000000e-02 0.000000e+00 0.000000e+00
      vertex   0.000000e+00 -6.106227e-17 2.000000e-01
      vertex   2.000000e-02 -6.106227e-17 2.000000e-01
    endloop
  endfacet
  facet normal 0.000000e+00 -1.000000e+00 -1.792691e-16
    outer loop
      vertex   0.000000e+00 -1.000000e-03 2.010000e-01
      vertex   0.000000e+00 -1.000000e-03 -1.000000e-03
      vertex   2.000000e-02 -1.000000e-03 2.010000e-01
    endloop
  endfacet
  facet normal 0.000000e+00 -1.000000e+00 -1.792691e-16
    outer loop
      vertex   2.000000e-02 -1.000000e-03 2.010000e-01
      vertex   0.000000e+00 -1.000000e-03 -1.000000e-03
      vertex   2.000000e-02 -1.000000e-03 -1.000000e-03
    endloop
  endfacet
  facet normal -0.000000e+00 0.000000e+00 1.000000e+00
    outer loop
      vertex   0.000000e+00 1.010000e-01 2.010000e-01
      vertex   0.000000e+00 -1.000000e-03 2.010000e-01
      vertex   2.000000e-02 1.010000e-01 2.010000e-01
    endloop
  endfacet
  facet normal 0.000000e+00 0.000000e+00 1.000000e+00
    outer loop
      vertex   2.000000e-02 1.010000e-01 2.010000e-01
      vertex   0.000000e+00 -1.000000e-03 2.010000e-01
      vertex   2.000000e-02 -1.000000e-03 2.010000e-01
    endloop
  endfacet
  facet normal -0.000000e+00 1.000000e+00 6.870192e-17
    outer loop
      vertex   0.000000e+00 1.010000e-01 -1.000000e-03
      vertex   0.000000e+00 1.010000e-01 2.010000e-01
      vertex   2.000000e-02 1.010000e-01 -1.000000e-03
    endloop
  endfacet
  facet normal 0.000000e+00 1.000000e+00 6.870192e-17
    outer loop
      vertex   2.000000e-02 1.010000e-01 -1.000000e-03
      vertex   0.000000e+00 1.010000e-01 2.010000e-01
      vertex   2.000000e-02 1.010000e-01 2.010000e-01
    endloop
  endfacet
  facet normal 0.000000e+00 1.211755e-16 -1.000000e+00
    outer loop
      vertex   0.000000e+00 -1.000000e-03 -1.000000e-03
      vertex   0.000000e+00 1.010000e-01 -1.000000e-03
      vertex   2.000000e-02 -1.000000e-03 -1.000000e-03
    endloop
  endfacet
  facet normal 0.000000e+00 1.211755e-16 -1.000000e+00
    outer loop
      vertex   2.000000e-02 -1.000000e-03 -1.000000e-03
      vertex   0.000000e+00 1.010000e-01 -1.000000e-03
      vertex   2.000000e-02 1.010000e-01 -1.000000e-03
    endloop
  endfacet
  facet normal 1.000000e+00 0.000000e+00 0.000000e+00
    outer loop
      vertex   2.000000e-02 1.010000e-01 -1.000000e-03
      vertex   2.000000e-02 1.000000e-01 0.000000e+00
      vertex   2.000000e-02 -1.000000e-03 -1.000000e-03
    endloop
  endfacet
  facet normal 1.000000e+00 0.000000e+00 0.000000e+00
    outer loop
      vertex   2.000000e-02 -1.000000e-03 -1.000000e-03
      vertex   2.000000e-02 1.000000e-01 0.000000e+00
      vertex   2.000000e-02 0.000000e+00 0.000000e+00
    endloop
  endfacet
  facet normal 1.000000e+00 0.000000e+00 0.000000e+00
    outer loop
      vertex   2.000000e-02 -1.000000e-03 -1.000000e-03
      vertex   2.000000e-02 0.000000e+00 0.000000e+00
      vertex   2.000000e-02 -6.106227e-17 2.000000e-01
    endloop
  endfacet
  facet normal 1.000000e+00 0.000000e+00 0.000000e+00
    outer loop
      vertex   2.000000e-02 1.010000e-01 -1.000000e-03
      vertex   2.000000e-02 1.010000e-01 2.010000e-01
      vertex   2.000000e-02 1.000000e-01 0.000000e+00
    endloop
  endfacet
  facet normal 1.000000e+00 0.000000e+00 -0.000000e+00
    outer loop
      vertex   2.000000e-02 1.000000e-01 0.000000e+00
      vertex   2.000000e-02 1.010000e-01 2.010000e-01
      vertex   2.000000e-02 1.000000e-01 2.000000e-01
    endloop
  endfacet
  facet normal 1.000000e+00 0.000000e+00 -0.000000e+00
    outer loop
      vertex   2.000000e-02 1.000000e-01 2.000000e-01
      vertex   2.000000e-02 1.010000e-01 2.010000e-01
      vertex   2.000000e-02 -1.000000e-03 2.010000e-01
    endloop
  endfacet
  facet normal 1.000000e+00 0.000000e+00 0.000000e+00
    outer loop
      vertex   2.000000e-02 1.000000e-01 2.000000e-01
      vertex   2.000000e-02 -1.000000e-03 2.010000e-01
      vertex   2.000000e-02 -6.106227e-17 2.000000e-01
    endloop
  endfacet
  facet normal 1.000000e+00 0.000000e+00 0.000000e+00
    outer loop
      vertex   2.000000e-02 -6.106227e-17 2.000000e-01
      vertex   2.000000e-02 -1.000000e-03 2.010000e-01
      vertex   2.000000e-02 -1.000000e-03 -1.000000e-03
    endloop
  endfacet
  facet normal -1.000000e+00 0.000000e+00 0.000000e+00
    outer loop
      vertex   0.000000e+00 -1.000000e-03 -1.000000e-03
      vertex   0.000000e+00 1.000000e-01 0.000000e+00
      vertex   0.000000e+00 1.010000e-01 -1.000000e-03
    endloop
  endfacet
  facet normal -1.000000e+00 0.000000e+00 0.000000e+00
    outer loop
      vertex   0.000000e+00 1.010000e-01 -1.000000e-03
      vertex   0.000000e+00 1.000000e-01 0.000000e+00
      vertex   0.000000e+00 1.000000e-01 2.000000e-01
    endloop
  endfacet
  facet normal -1.000000e+00 0.000000e+00 0.000000e+00
    outer loop
      vertex   0.000000e+00 1.010000e-01 -1.000000e-03
      vertex   0.000000e+00 1.000000e-01 2.000000e-01
      vertex   0.000000e+00 1.010000e-01 2.010000e-01
    endloop
  endfacet
  facet normal -1.000000e+00 -0.000000e+00 0.000000e+00
    outer loop
      vertex   0.000000e+00 1.010000e-01 2.010000e-01
      vertex   0.000000e+00 1.000000e-01 2.000000e-01
      vertex   0.000000e+00 -1.000000e-03 2.010000e-01
    endloop
  endfacet
  facet normal -1.000000e+00 0.000000e+00 0.000000e+00
    outer loop
      vertex   0.000000e+00 -1.000000e-03 2.010000e-01
      vertex   0.000000e+00 1.000000e-01 2.000000e-01
      vertex   0.000000e+00 -6.106227e-17 2.000000e-01
    endloop
  endfacet
  facet normal -1.000000e+00 0.000000e+00 0.000000e+00
    outer loop
      vertex   0.000000e+00 -1.000000e-03 2.010000e-01
      vertex   0.000000e+00 -6.106227e-17 2.000000e-01
      vertex   0.000000e+00 0.000000e+00 0.000000e+00
    endloop
  endfacet
  facet normal -1.000000e+00 -0.000000e+00 0.000000e+00
    outer loop
      vertex   0.000000e+00 1.000000e-01 0.000000e+00
      vertex   0.000000e+00 -1.000000e-03 -1.000000e-03
      vertex   0.000000e+00 0.000000e+00 0.000000e+00
    endloop
  endfacet
  facet normal -1.000000e+00 -0.000000e+00 0.000000e+00
    outer loop
      vertex   0.000000e+00 0.000000e+00 0.000000e+00
      vertex   0.000000e+00 -1.000000e-03 -1.000000e-03
      vertex   0.000000e+00 -1.000000e-03 2.010000e-01
    endloop
  endfacet
endsolid
