solid ASCII
  facet normal 0.000000e+00 -0.000000e+00 1.000000e+00
    outer loop
      vertex   0.000000e+00 -7.105427e-17 2.000000e-01
      vertex   0.000000e+00 1.000000e-01 2.000000e-01
      vertex   -1.000000e-03 -7.105427e-17 2.000000e-01
    endloop
  endfacet
  facet normal 0.000000e+00 0.000000e+00 1.000000e+00
    outer loop
      vertex   -1.000000e-03 -7.105427e-17 2.000000e-01
      vertex   0.000000e+00 1.000000e-01 2.000000e-01
      vertex   -1.000000e-03 1.000000e-01 2.000000e-01
    endloop
  endfacet
  facet normal -0.000000e+00 -1.000000e+00 -3.552714e-16
    outer loop
      vertex   0.000000e+00 0.000000e+00 0.000000e+00
      vertex   0.000000e+00 -7.105427e-17 2.000000e-01
      vertex   -1.000000e-03 0.000000e+00 0.000000e+00
    endloop
  endfacet
  facet normal 0.000000e+00 -1.000000e+00 -3.552714e-16
    outer loop
      vertex   -1.000000e-03 0.000000e+00 0.000000e+00
      vertex   0.000000e+00 -7.105427e-17 2.000000e-01
      vertex   -1.000000e-03 -7.105427e-17 2.000000e-01
    endloop
  endfacet
  facet normal -0.000000e+00 -0.000000e+00 -1.000000e+00
    outer loop
      vertex   0.000000e+00 1.000000e-01 0.000000e+00
      vertex   0.000000e+00 0.000000e+00 0.000000e+00
      vertex   -1.000000e-03 1.000000e-01 0.000000e+00
    endloop
  endfacet
  facet normal 0.000000e+00 0.000000e+00 -1.000000e+00
    outer loop
      vertex   -1.000000e-03 1.000000e-01 0.000000e+00
      vertex   0.000000e+00 0.000000e+00 0.000000e+00
      vertex   -1.000000e-03 0.000000e+00 0.000000e+00
    endloop
  endfacet
  facet normal 0.000000e+00 1.000000e+00 3.469447e-16
    outer loop
      vertex   0.000000e+00 1.000000e-01 2.000000e-01
      vertex   0.000000e+00 1.000000e-01 0.000000e+00
      vertex   -1.000000e-03 1.000000e-01 2.000000e-01
    endloop
  endfacet
  facet normal 0.000000e+00 1.000000e+00 3.469447e-16
    outer loop
      vertex   -1.000000e-03 1.000000e-01 2.000000e-01
      vertex   0.000000e+00 1.000000e-01 0.000000e+00
      vertex   -1.000000e-03 1.000000e-01 0.000000e+00
    endloop
  endfacet
  facet normal 1.000000e+00 0.000000e+00 0.000000e+00
    outer loop
      vertex   0.000000e+00 1.000000e-01 0.000000e+00
      vertex   0.000000e+00 1.000000e-01 2.000000e-01
      vertex   0.000000e+00 0.000000e+00 0.000000e+00
    endloop
  endfacet
  facet normal 1.000000e+00 0.000000e+00 -0.000000e+00
    outer loop
      vertex   0.000000e+00 0.000000e+00 0.000000e+00
      vertex   0.000000e+00 1.000000e-01 2.000000e-01
      vertex   0.000000e+00 -7.105427e-17 2.000000e-01
    endloop
  endfacet
  facet normal -1.000000e+00 -0.000000e+00 -0.000000e+00
    outer loop
      vertex   -1.000000e-03 1.000000e-01 2.000000e-01
      vertex   -1.000000e-03 1.000000e-01 0.000000e+00
      vertex   -1.000000e-03 -7.105427e-17 2.000000e-01
    endloop
  endfacet
  facet normal -1.000000e+00 0.000000e+00 0.000000e+00
    outer loop
      vertex   -1.000000e-03 -7.105427e-17 2.000000e-01
      vertex   -1.000000e-03 1.000000e-01 0.000000e+00
      vertex   -1.000000e-03 0.000000e+00 0.000000e+00
    endloop
  endfacet
  facet normal 0.000000e+00 -1.000000e+00 -3.552714e-16
    outer loop
      vertex   2.000000e-02 -7.105427e-17 2.000000e-01
      vertex   2.000000e-02 0.000000e+00 0.000000e+00
      vertex   2.100000e-02 -7.105427e-17 2.000000e-01
    endloop
  endfacet
  facet normal 0.000000e+00 -1.000000e+00 -3.552714e-16
    outer loop
      vertex   2.100000e-02 -7.105427e-17 2.000000e-01
      vertex   2.000000e-02 0.000000e+00 0.000000e+00
      vertex   2.100000e-02 0.000000e+00 0.000000e+00
    endloop
  endfacet
  facet normal -0.000000e+00 0.000000e+00 1.000000e+00
    outer loop
      vertex   2.000000e-02 1.000000e-01 2.000000e-01
      vertex   2.000000e-02 -7.105427e-17 2.000000e-01
      vertex   2.100000e-02 1.000000e-01 2.000000e-01
    endloop
  endfacet
  facet normal 0.000000e+00 0.000000e+00 1.000000e+00
    outer loop
      vertex   2.100000e-02 1.000000e-01 2.000000e-01
      vertex   2.000000e-02 -7.105427e-17 2.000000e-01
      vertex   2.100000e-02 -7.105427e-17 2.000000e-01
    endloop
  endfacet
  facet normal -0.000000e+00 1.000000e+00 3.469447e-16
    outer loop
      vertex   2.000000e-02 1.000000e-01 0.000000e+00
      vertex   2.000000e-02 1.000000e-01 2.000000e-01
      vertex   2.100000e-02 1.000000e-01 0.000000e+00
    endloop
  endfacet
  facet normal 0.000000e+00 1.000000e+00 3.469447e-16
    outer loop
      vertex   2.100000e-02 1.000000e-01 0.000000e+00
      vertex   2.000000e-02 1.000000e-01 2.000000e-01
      vertex   2.100000e-02 1.000000e-01 2.000000e-01
    endloop
  endfacet
  facet normal 0.000000e+00 0.000000e+00 -1.000000e+00
    outer loop
      vertex   2.000000e-02 0.000000e+00 0.000000e+00
      vertex   2.000000e-02 1.000000e-01 0.000000e+00
      vertex   2.100000e-02 0.000000e+00 0.000000e+00
    endloop
  endfacet
  facet normal 0.000000e+00 0.000000e+00 -1.000000e+00
    outer loop
      vertex   2.100000e-02 0.000000e+00 0.000000e+00
      vertex   2.000000e-02 1.000000e-01 0.000000e+00
      vertex   2.100000e-02 1.000000e-01 0.000000e+00
    endloop
  endfacet
  facet normal 1.000000e+00 0.000000e+00 0.000000e+00
    outer loop
      vertex   2.100000e-02 1.000000e-01 0.000000e+00
      vertex   2.100000e-02 1.000000e-01 2.000000e-01
      vertex   2.100000e-02 0.000000e+00 0.000000e+00
    endloop
  endfacet
  facet normal 1.000000e+00 0.000000e+00 -0.000000e+00
    outer loop
      vertex   2.100000e-02 0.000000e+00 0.000000e+00
      vertex   2.100000e-02 1.000000e-01 2.000000e-01
      vertex   2.100000e-02 -7.105427e-17 2.000000e-01
    endloop
  endfacet
  facet normal -1.000000e+00 0.000000e+00 0.000000e+00
    outer loop
      vertex   2.000000e-02 0.000000e+00 0.000000e+00
      vertex   2.000000e-02 -7.105427e-17 2.000000e-01
      vertex   2.000000e-02 1.000000e-01 0.000000e+00
    endloop
  endfacet
  facet normal -1.000000e+00 0.000000e+00 0.000000e+00
    outer loop
      vertex   2.000000e-02 1.000000e-01 0.000000e+00
      vertex   2.000000e-02 -7.105427e-17 2.000000e-01
      vertex   2.000000e-02 1.000000e-01 2.000000e-01
    endloop
  endfacet
endsolid
